<svg width="512" height="512" viewBox="0 0 512 512" fill="none" xmlns="http://www.w3.org/2000/svg">
<path d="M420.966 175.648C415.517 173.778 410.022 172.046 404.486 170.454C405.416 166.654 406.272 162.9 407.032 159.212C419.508 98.6497 411.352 49.8597 383.494 33.7957C356.784 18.3957 313.102 34.4537 268.986 72.8477C264.638 76.6383 260.387 80.5382 256.236 84.5437C253.457 81.8802 250.629 79.2684 247.754 76.7097C201.518 35.6577 155.174 18.3556 127.346 34.4657C100.66 49.9137 92.758 95.7797 103.99 153.176C105.107 158.86 106.369 164.515 107.774 170.136C101.214 172 94.884 173.984 88.826 176.096C34.618 194.996 0 224.614 0 255.336C0 287.066 37.164 318.892 93.624 338.19C98.2013 339.748 102.817 341.192 107.466 342.52C105.956 348.573 104.616 354.667 103.446 360.796C92.738 417.196 101.1 461.978 127.714 477.328C155.202 493.18 201.338 476.888 246.26 437.618C249.903 434.425 253.465 431.142 256.944 427.772C261.439 432.109 266.054 436.32 270.784 440.4C314.3 477.844 357.276 492.964 383.864 477.572C411.326 461.674 420.252 413.566 408.664 355.036C407.751 350.45 406.727 345.888 405.594 341.352C408.834 340.392 412.014 339.404 415.114 338.376C473.81 318.93 512 287.49 512 255.336C512 224.502 476.264 194.684 420.966 175.648V175.648ZM408.236 317.616C405.436 318.542 402.564 319.436 399.636 320.306C393.156 299.792 384.412 277.98 373.71 255.442C383.922 233.442 392.33 211.908 398.628 191.528C403.866 193.044 408.948 194.642 413.848 196.328C461.228 212.64 490.128 236.754 490.128 255.336C490.128 275.128 458.916 300.822 408.236 317.616V317.616ZM387.208 359.284C392.332 385.164 393.062 408.564 389.668 426.858C386.62 443.296 380.488 454.254 372.904 458.644C356.77 467.984 322.264 455.844 285.05 423.82C280.651 420.026 276.358 416.112 272.176 412.08C286.604 396.302 301.022 377.96 315.094 357.588C339.846 355.392 363.23 351.8 384.436 346.898C385.458 351.004 386.382 355.134 387.208 359.284V359.284ZM174.552 457.03C158.788 462.596 146.232 462.756 138.642 458.38C122.492 449.066 115.778 413.108 124.936 364.876C126.025 359.176 127.271 353.508 128.674 347.878C149.646 352.518 172.86 355.854 197.67 357.866C211.838 377.8 226.672 396.122 241.622 412.166C238.445 415.24 235.193 418.236 231.868 421.15C212.002 438.514 192.096 450.834 174.552 457.03V457.03ZM100.7 317.494C75.734 308.96 55.116 297.87 40.984 285.768C28.284 274.894 21.874 264.096 21.874 255.336C21.874 236.692 49.668 212.912 96.026 196.75C101.652 194.79 107.54 192.94 113.65 191.204C120.058 212.044 128.462 233.834 138.604 255.868C128.33 278.228 119.806 300.366 113.336 321.452C109.092 320.236 104.879 318.916 100.7 317.494V317.494ZM125.456 148.974C115.834 99.7997 122.224 62.7057 138.306 53.3957C155.434 43.4797 193.31 57.6177 233.232 93.0657C235.835 95.3824 238.396 97.7461 240.914 100.156C226.038 116.13 211.34 134.316 197.298 154.132C173.218 156.364 150.168 159.948 128.976 164.75C127.67 159.522 126.497 154.262 125.456 148.976V148.974ZM346.31 203.51C341.304 194.864 336.113 186.326 330.74 177.904C347.076 179.97 362.728 182.712 377.426 186.064C373.014 200.208 367.514 214.994 361.04 230.154C356.308 221.175 351.397 212.292 346.31 203.51V203.51ZM256.246 115.788C266.334 126.718 276.438 138.92 286.376 152.16C266.216 151.208 246.022 151.204 225.862 152.148C235.81 139.03 246 126.844 256.246 115.788ZM165.604 203.66C160.581 212.371 155.761 221.199 151.15 230.136C144.782 215.03 139.332 200.176 134.882 185.832C149.49 182.564 165.068 179.892 181.3 177.864C175.867 186.338 170.633 194.938 165.604 203.658V203.66ZM181.766 334.364C164.996 332.492 149.184 329.958 134.58 326.778C139.1 312.178 144.67 297.008 151.176 281.578C155.806 290.521 160.645 299.354 165.69 308.07C170.878 317.03 176.25 325.806 181.766 334.364ZM256.85 396.424C246.482 385.24 236.142 372.866 226.044 359.558C235.848 359.942 245.842 360.138 256 360.138C266.436 360.138 276.752 359.904 286.906 359.452C276.936 373 266.87 385.392 256.85 396.424ZM361.246 280.79C368.09 296.39 373.858 311.48 378.438 325.83C363.594 329.218 347.566 331.946 330.678 333.972C336.09 325.393 341.33 316.707 346.396 307.92C351.547 298.988 356.498 289.942 361.246 280.79V280.79ZM327.45 296.992C319.694 310.464 311.503 323.681 302.888 336.622C287.283 337.727 271.644 338.276 256 338.268C240.066 338.268 224.568 337.772 209.644 336.804C200.804 323.893 192.456 310.653 184.618 297.112H184.62C176.818 283.642 169.531 269.881 162.774 255.858C169.514 241.831 176.779 228.064 184.554 214.584L184.552 214.586C192.324 201.102 200.605 187.919 209.378 175.064C224.604 173.912 240.218 173.312 255.998 173.312H256C271.852 173.312 287.486 173.918 302.708 175.078C311.392 187.913 319.621 201.052 327.378 214.468C335.179 227.918 342.54 241.619 349.45 255.548C342.611 269.619 335.273 283.443 327.45 296.992V296.992ZM372.57 52.7437C389.714 62.6317 396.382 102.506 385.61 154.796C384.922 158.132 384.15 161.53 383.31 164.976C362.066 160.072 339 156.426 314.85 154.16C300.782 134.126 286.204 115.912 271.57 100.144C275.405 96.4467 279.332 92.8456 283.346 89.3437C321.146 56.4497 356.474 43.4617 372.57 52.7437V52.7437ZM256 209.616C281.25 209.616 301.72 230.086 301.72 255.336C301.72 280.586 281.25 301.056 256 301.056C230.75 301.056 210.28 280.586 210.28 255.336C210.28 230.086 230.75 209.616 256 209.616V209.616Z" fill="#00D8FF"/>
</svg>
