<svg width="512" height="512" viewBox="0 0 512 512" fill="none" xmlns="http://www.w3.org/2000/svg">
<path fillRule="evenodd" clipRule="evenodd" d="M256 103C187.871 103 144.929 137.271 128 205.4C153.6 171.129 183.329 158.329 217.6 167C237.006 171.955 251.045 185.994 266.323 201.684C291.51 227.284 320.413 256.6 384 256.6C452.129 256.6 495.071 222.329 512 154.2C486.4 188.471 456.671 201.271 422.4 192.6C402.994 187.645 388.955 173.606 373.677 157.916C348.49 132.316 319.587 103 256 103ZM128 256.187C59.871 256.187 16.929 290.458 0 358.587C25.6 324.316 55.329 311.516 89.6 320.187C109.006 325.142 123.045 339.181 138.323 354.871C163.51 380.471 192.413 409.787 256 409.787C324.129 409.787 367.071 375.516 384 307.387C358.4 341.658 328.671 354.458 294.4 345.787C274.994 340.832 260.955 326.794 245.677 311.103C220.49 285.916 191.587 256.187 128 256.187Z" fill="#06B6D4"/>
</svg>
