<svg width="512" height="512" viewBox="0 0 512 512" fill="none" xmlns="http://www.w3.org/2000/svg">
<g clip-path="url(#clip0_23_499)">
<path d="M510.306 75.7801L269.794 505.317C264.828 514.185 252.07 514.238 247.03 505.412L1.74886 75.8215C-3.74223 66.2042 4.49191 54.5551 15.4038 56.503L256.173 99.4851C257.709 99.7593 259.282 99.7567 260.818 99.4772L496.552 56.5647C507.427 54.585 515.7 66.1439 510.306 75.7801Z" fill="url(#paint0_linear_23_499)"/>
<path d="M370.865 0.126049L192.879 34.9579C189.953 35.5304 187.787 38.0064 187.611 40.9778L176.662 225.659C176.405 230.009 180.405 233.385 184.655 232.406L234.209 220.984C238.846 219.916 243.035 223.994 242.082 228.651L227.36 300.654C226.369 305.5 230.924 309.643 235.663 308.206L266.27 298.919C271.015 297.48 275.574 301.635 274.57 306.485L251.173 419.585C249.709 426.659 259.131 430.517 263.061 424.452L265.685 420.401L410.718 131.326C413.147 126.486 408.959 120.967 403.636 121.993L352.629 131.825C347.835 132.748 343.757 128.289 345.11 123.606L378.402 8.34091C379.756 3.64926 375.663 -0.812893 370.865 0.126049Z" fill="url(#paint1_linear_23_499)"/>
</g>
<defs>
<linearGradient id="paint0_linear_23_499" x1="-4.23985" y1="41.152" x2="294.608" y2="447.522" gradientUnits="userSpaceOnUse">
<stop stop-color="#41D1FF"/>
<stop offset="1" stop-color="#BD34FE"/>
</linearGradient>
<linearGradient id="paint1_linear_23_499" x1="242.354" y1="9.58283" x2="296.369" y2="380.588" gradientUnits="userSpaceOnUse">
<stop stop-color="#FFEA83"/>
<stop offset="0.0833333" stop-color="#FFDD35"/>
<stop offset="1" stop-color="#FFA800"/>
</linearGradient>
<clipPath id="clip0_23_499">
<rect width="512" height="512" fill="white"/>
</clipPath>
</defs>
</svg>
